<?xml version="1.0" encoding="utf-8" ?>
<svg baseProfile="tiny" height="100%" shape-rendering="crispEdges" version="1.2" width="100%" xmlns="http://www.w3.org/2000/svg" xmlns:ev="http://www.w3.org/2001/xml-events" xmlns:xlink="http://www.w3.org/1999/xlink"><defs /><g><path d="M 123 4 L 121 4 L 120 5 L 119 5 L 118 5 L 117 6 L 116 6 L 115 6 L 114 7 L 113 7 L 112 7 L 111 8 L 110 8 L 109 8 L 108 9 L 107 9 L 106 9 L 105 9 L 104 10 L 103 10 L 102 10 L 101 11 L 100 11 L 99 11 L 98 12 L 97 12 L 96 12 L 95 13 L 94 13 L 93 13 L 92 14 L 91 14 L 90 14 L 89 15 L 88 15 L 86 15 L 85 16 L 84 16 L 83 17 L 81 18 Z" fill="none" stroke="red" stroke-width="2" /><path d="M 55.63999938964844 100.04000091552734 L 54.554481506347656 100.65898132324219 L 53.42085266113281 101.14085388183594 L 52.252498626708984 101.52149963378906 L 51.06281661987305 101.8368148803711 L 49.86518478393555 102.12268829345703 L 48.67300033569336 102.41500091552734 L 47.634315490722656 102.68472290039062 L 46.595821380615234 102.95515441894531 L 45.5574951171875 103.2262191772461 L 44.519317626953125 103.49786376953125 L 43.48127746582031 103.77002716064453 L 42.443359375 104.0426254272461 L 41.40553665161133 104.31561279296875 L 40.3677978515625 104.58890533447266 L 39.33012771606445 104.86245727539062 L 38.292503356933594 105.13619232177734 L 37.254913330078125 105.41004943847656 L 36.21733856201172 105.6839599609375 L 35.17975616455078 105.95785522460938 L 34.14215850830078 106.23168182373047 L 33.10451889038086 106.50537109375 L 32.066829681396484 106.77884674072266 L 31.029064178466797 107.05206298828125 L 29.9912109375 107.32493591308594 L 28.953250885009766 107.597412109375 L 27.9151668548584 107.86941528320312 L 26.876941680908203 108.14089965820312 L 25.838558197021484 108.41178131103516 L 24.799999237060547 108.68199920654297 L 23.626798629760742 108.98883056640625 L 22.454313278198242 109.29849243164062 L 21.282222747802734 109.6097412109375 L 20.110206604003906 109.92133331298828 L 18.937942504882812 110.2320327758789 L 17.765111923217773 110.54059600830078 L 16.59139060974121 110.84577178955078 L 15.416460990905762 111.14631652832031 L 14.239999771118164 111.44100189208984 Z" fill="none" stroke="green" stroke-width="2" /><path d="M 41.720001220703125 12.4399995803833 L 41.82962417602539 13.897000312805176 L 42.45899963378906 15.189000129699707 L 43.007049560546875 16.168161392211914 L 43.543975830078125 17.153182983398438 L 44.07296371459961 18.142370223999023 L 44.59718322753906 19.13402557373047 L 45.119815826416016 20.126455307006836 L 45.64403533935547 21.117963790893555 L 46.17302322387695 22.106853485107422 L 46.70995330810547 23.0914306640625 L 47.257999420166016 24.06999969482422 L 48.07324981689453 25.844999313354492 L 48.72800064086914 27.697999954223633 L 49.676998138427734 28.05500030517578 L 50.0948486328125 29.0223445892334 L 50.5277214050293 29.980670928955078 L 50.97410583496094 30.93079948425293 L 51.43247985839844 31.87355613708496 L 51.90131759643555 32.80976867675781 L 52.37910842895508 33.740257263183594 L 52.86433029174805 34.66584777832031 L 53.3554573059082 35.587364196777344 L 53.850975036621094 36.50563049316406 L 54.349361419677734 37.42147445678711 L 54.84910202026367 38.33572006225586 L 55.34866714477539 39.24918746948242 L 55.8465461730957 40.1627082824707 L 56.34121322631836 41.07709884643555 L 56.83115005493164 41.99319076538086 L 57.31483840942383 42.91180419921875 L 57.79075622558594 43.83376693725586 L 58.25738525390625 44.7598991394043 L 58.71320724487305 45.6910285949707 L 59.15669631958008 46.62797927856445 L 59.586341857910156 47.57157516479492 L 60.000614166259766 48.522640228271484 L 60.39799880981445 49.481998443603516 L 61.4630012512207 50.09600067138672 L 61.870487213134766 51.060386657714844 L 62.29539108276367 52.01560592651367 L 62.735904693603516 52.96257781982422 L 63.19023132324219 53.9022102355957 L 63.65656280517578 54.83542251586914 L 64.13310241699219 55.763126373291016 L 64.61805725097656 56.68623352050781 L 65.10960388183594 57.60566329956055 L 65.60595703125 58.52232360839844 L 66.10531616210938 59.437129974365234 L 66.60587310791016 60.35100173950195 L 67.10582733154297 61.26484298706055 L 67.60338592529297 62.1795768737793 L 68.09673309326172 63.09611511230469 L 68.58407592773438 64.01536560058594 L 69.06361389160156 64.9382553100586 L 69.53353881835938 65.86568450927734 L 69.99205780029297 66.79857635498047 L 70.43736267089844 67.73783874511719 L 70.86766052246094 68.68438720703125 L 71.28113555908203 69.6391372680664 L 71.6760025024414 70.60299682617188 L 72.68099975585938 71.17500305175781 L 73.10945892333984 72.14222717285156 L 73.55084991455078 73.1016845703125 L 74.00389099121094 74.0540542602539 L 74.4673080444336 75.00005340576172 L 74.93981170654297 75.94036865234375 L 75.42013549804688 76.87570190429688 L 75.90699005126953 77.80674743652344 L 76.39909362792969 78.73420715332031 L 76.89517974853516 79.65877532958984 L 77.39395904541016 80.58114624023438 L 77.89414978027344 81.50202941894531 L 78.39447784423828 82.42211151123047 L 78.89366149902344 83.34209442138672 L 79.39041900634766 84.26268005371094 L 79.88346862792969 85.18455505371094 L 80.37154388427734 86.10842895507812 L 80.85334777832031 87.03499603271484 L 81.3276138305664 87.96495056152344 L 81.79305267333984 88.89899444580078 L 82.2483901977539 89.83782196044922 L 82.69235229492188 90.78213500976562 L 83.12364959716797 91.73262786865234 L 83.54100036621094 92.69000244140625 L 84.74099731445312 93.36799621582031 L 85.08696746826172 94.58521270751953 L 85.54292297363281 95.75792694091797 L 86.08197021484375 96.89759826660156 L 86.67720794677734 98.01568603515625 L 87.30172729492188 99.12364196777344 L 87.92862701416016 100.23292541503906 L 88.53099822998047 101.3550033569336 L 89.06410217285156 102.38685607910156 L 89.60150909423828 103.41647338867188 L 90.142578125 104.4441909790039 L 90.68665313720703 105.47034454345703 L 91.23309326171875 106.49526977539062 L 91.78125 107.51930236816406 L 92.3304672241211 108.54279327392578 L 92.8801040649414 109.5660629272461 L 93.42950439453125 110.58946990966797 L 93.97801971435547 111.61333465576172 L 94.5250015258789 112.63800048828125 L 95.24500274658203 115.0459976196289 L 96.58399963378906 115.66400146484375 L 96.9553451538086 116.7815170288086 L 97.38301849365234 117.87358093261719 L 97.85804748535156 118.94426727294922 L 98.37149047851562 119.99763488769531 L 98.91437530517578 121.03775024414062 L 99.47775268554688 122.06868743896484 L 100.05265808105469 123.09451293945312 L 100.63014221191406 124.11929321289062 L 101.20124053955078 125.14710235595703 L 101.75700378417969 126.18199920654297 L 102.27091217041016 127.16033935546875 L 102.78621673583984 128.13800048828125 L 103.30278015136719 129.1150360107422 L 103.82047271728516 130.0915069580078 L 104.33917999267578 131.06748962402344 L 104.8587646484375 132.04302978515625 L 105.37910461425781 133.0181884765625 L 105.90007019042969 133.9930419921875 L 106.42153930664062 134.9676513671875 L 106.94337463378906 135.9420623779297 L 107.46546173095703 136.91636657714844 L 107.98766326904297 137.89059448242188 L 108.50984954833984 138.8648223876953 L 109.03191375732422 139.83912658691406 L 109.55370330810547 140.81353759765625 L 110.07511138916016 141.78814697265625 L 110.59600067138672 142.76300048828125 L 111.15786743164062 143.822265625 L 111.71696472167969 144.88340759277344 L 112.2770004272461 145.94400024414062 L 112.84170532226562 147.0015869140625 L 113.414794921875 148.05374145507812 L 114.0 149.09800720214844 L 114.57962799072266 150.34774780273438 L 114.88770294189453 151.6212615966797 L 114.91999816894531 152.96099853515625 Z" fill="none" stroke="blue" stroke-width="2" /><path d="M 157 89 L 157 88 L 156 87 L 156 86 L 155 85 L 155 84 L 154 83 L 154 82 L 153 81 L 153 80 L 152 80 L 151 79 L 151 77 L 150 76 L 149 75 L 148 75 L 147 76 L 146 76 L 145 77 L 144 77 L 142 77 L 141 77 L 140 78 L 139 78 L 138 78 L 137 79 L 136 79 L 135 79 L 134 79 L 133 80 L 132 80 L 131 80 L 129 81 L 128 81 L 127 81 L 126 81 L 125 82 L 124 82 L 123 82 L 122 82 L 121 83 L 120 83 L 119 83 L 118 84 L 116 85 Z" fill="none" stroke="yellow" stroke-width="2" /><path d="M 136 53 L 135 53 L 134 53 L 133 54 L 132 54 L 131 54 L 130 55 L 129 55 L 128 55 L 126 56 L 125 56 L 124 56 L 123 56 L 122 57 L 121 57 L 120 57 L 119 58 L 118 58 L 117 58 L 116 58 L 115 59 L 114 59 L 113 59 L 112 60 L 111 60 L 110 60 L 109 60 L 108 61 L 107 61 L 105 61 L 104 62 Z" fill="none" stroke="purple" stroke-width="2" /><path d="M 125 33 L 123 34 L 122 34 L 121 34 L 120 35 L 119 35 L 117 35 L 116 35 L 115 36 L 114 36 L 113 36 L 112 36 L 111 37 L 110 37 L 109 37 L 108 38 L 107 38 L 106 38 L 105 38 L 104 39 L 103 39 L 102 39 L 101 39 L 100 40 L 99 40 L 98 40 L 97 40 L 96 41 L 93 42 Z" fill="none" stroke="orange" stroke-width="2" /><path d="M 92 41 L 91 42 L 90 42 L 88 42 L 87 43 L 86 43 L 85 43 L 84 44 L 83 44 L 82 44 L 81 44 L 80 45 L 79 45 L 78 45 L 76 45 L 75 46 L 74 46 L 73 46 L 72 46 L 71 47 L 70 47 L 69 47 L 68 47 L 67 48 L 66 48 L 65 48 L 64 49 L 63 49 L 61 50 Z" fill="none" stroke="red" stroke-width="2" /><path d="M 127.04000091552734 108.19999694824219 L 125.95267486572266 108.71066284179688 L 124.82970428466797 109.0986328125 L 123.68162536621094 109.3968734741211 L 122.51896667480469 109.63836669921875 L 121.35224914550781 109.85608673095703 L 120.19200134277344 110.08300018310547 L 119.12430572509766 110.3092041015625 L 118.05715942382812 110.53787994384766 L 116.990478515625 110.7686767578125 L 115.9241943359375 111.00121307373047 L 114.85821533203125 111.23513793945312 L 113.79247283935547 111.47007751464844 L 112.72687530517578 111.70567321777344 L 111.66134643554688 111.94155883789062 L 110.5958023071289 112.17736053466797 L 109.53016662597656 112.41272735595703 L 108.46435546875 112.64729309082031 L 107.3982925415039 112.88068389892578 L 106.33190155029297 113.11253356933594 L 105.26509094238281 113.34249114990234 L 104.19778442382812 113.57018280029297 L 103.1299057006836 113.79524230957031 L 102.06136322021484 114.0173110961914 L 100.9920883178711 114.23601531982422 L 99.9219970703125 114.45099639892578 L 98.2406234741211 114.94312286376953 L 96.68000030517578 115.76000213623047 Z" fill="none" stroke="green" stroke-width="2" /><path d="M 114 84 L 114 83 L 114 82 L 113 81 L 113 80 L 112 79 L 111 78 L 111 77 L 110 76 L 110 75 L 109 74 L 109 72 L 108 71 L 108 70 L 107 69 L 107 68 L 106 67 L 106 66 L 105 65 L 104 64 L 104 63 L 103 62 L 102 60 L 102 59 L 101 58 L 101 57 L 100 56 L 100 55 L 99 54 L 99 53 L 98 52 L 97 51 L 97 50 L 96 49 L 96 47 L 95 46 L 95 45 L 94 44 L 93 42 L 92 41 L 92 40 L 91 39 L 91 38 L 90 37 L 90 36 L 89 35 L 89 34 L 88 32 L 87 31 L 87 30 L 86 29 L 86 28 L 85 27 L 85 26 L 84 25 L 84 24 L 83 23 L 83 22 L 82 21 L 82 20 L 81 19 L 80 17 L 79 17 L 78 18 L 76 19 L 75 19 L 74 19 L 73 20 L 72 20 L 71 20 L 70 21 L 69 21 L 68 21 L 67 22 L 66 22 L 65 22 L 64 23 L 63 23 L 62 23 L 61 24 L 60 24 L 59 24 L 58 25 L 57 25 L 56 25 L 55 26 L 54 26 L 52 26 L 51 27 L 49 28 Z" fill="none" stroke="blue" stroke-width="2" /><path d="M 103 62 L 102 62 L 100 63 L 99 63 L 98 63 L 97 64 L 96 64 L 95 64 L 94 64 L 93 65 L 92 65 L 91 65 L 90 66 L 89 66 L 88 66 L 87 66 L 85 67 L 84 67 L 83 67 L 82 68 L 81 68 L 80 68 L 79 68 L 78 69 L 77 69 L 76 69 L 75 70 L 72 71 Z" fill="none" stroke="yellow" stroke-width="2" /><path d="M 137 127 L 137 126 L 136 125 L 136 124 L 135 124 L 135 123 L 134 122 L 134 121 L 133 120 L 133 119 L 132 118 L 132 117 L 131 116 L 131 115 L 130 114 L 130 113 L 129 112 L 128 110 L 128 108 L 127 108 L 126 107 L 126 105 L 125 104 L 125 103 L 124 102 L 124 101 L 123 100 L 123 99 L 122 98 L 121 97 L 121 96 L 120 95 L 120 94 L 119 93 L 119 92 L 118 91 L 118 90 L 117 89 L 117 88 L 116 86 L 116 85 L 114 84 L 113 85 L 112 85 L 111 85 L 109 86 L 108 86 L 107 86 L 106 87 L 105 87 L 104 87 L 103 88 L 102 88 L 101 88 L 100 88 L 99 89 L 97 89 L 96 89 L 95 89 L 94 90 L 93 90 L 92 90 L 91 91 L 90 91 L 89 91 L 88 91 L 87 92 L 86 92 L 84 93 Z" fill="none" stroke="purple" stroke-width="2" /><path d="M 71 70 L 70 71 L 69 71 L 68 72 L 67 72 L 65 72 L 64 73 L 63 73 L 62 73 L 61 73 L 60 74 L 59 74 L 57 74 L 56 75 L 55 75 L 54 75 L 53 76 L 52 76 L 51 76 L 50 76 L 49 77 L 48 77 L 46 77 L 44 78 L 42 78 L 42 77 L 42 75 L 41 74 L 40 73 L 40 72 L 39 71 L 39 70 L 38 69 L 37 68 L 37 67 L 36 66 L 36 65 L 35 64 L 35 63 L 34 63 L 34 62 L 33 61 L 32 60 L 32 57 L 30 57 L 29 57 L 28 57 L 27 58 L 26 58 L 25 58 L 24 59 L 23 59 L 22 59 L 20 59 L 19 60 L 18 60 L 17 60 L 16 61 L 15 61 L 14 61 L 13 61 L 12 62 L 11 62 L 10 62 L 9 62 L 7 63 L 6 63 L 5 63 L 4 64 L 3 64 L 2 64 L 2 64 Z" fill="none" stroke="orange" stroke-width="2" /><path d="M 48 27 L 47 28 L 46 28 L 45 29 L 44 29 L 43 29 L 42 30 L 41 30 L 40 30 L 39 31 L 38 31 L 37 31 L 36 32 L 34 32 L 33 32 L 32 33 L 31 33 L 30 33 L 29 34 L 28 34 L 27 34 L 26 35 L 25 35 L 24 35 L 23 36 L 20 37 Z" fill="none" stroke="red" stroke-width="2" /><path d="M 60 49 L 59 50 L 58 50 L 57 50 L 56 51 L 54 51 L 53 51 L 52 51 L 51 52 L 50 52 L 49 52 L 48 53 L 47 53 L 46 53 L 45 53 L 44 54 L 43 54 L 42 54 L 41 54 L 40 55 L 39 55 L 38 55 L 37 55 L 36 56 L 35 56 L 33 56 L 32 57 Z" fill="none" stroke="green" stroke-width="2" /><path d="M 81 117 L 80 117 L 79 118 L 78 118 L 77 118 L 76 118 L 75 118 L 74 119 L 73 119 L 72 119 L 71 119 L 70 120 L 69 120 L 68 120 L 69 120 L 70 120 L 71 119 L 72 119 L 73 119 L 74 119 L 75 118 L 76 118 L 77 118 L 78 118 L 79 118 L 80 117 L 81 117 L 82 117 L 83 116 L 84 116 L 85 116 L 86 116 L 87 116 L 88 115 L 89 115 L 90 115 L 91 115 L 92 114 L 93 114 L 94 114 L 93 114 L 92 114 L 91 115 L 90 115 L 89 115 L 88 115 L 87 116 L 86 116 L 85 116 L 84 116 L 83 116 L 82 117 L 81 117" fill="none" stroke="blue" stroke-width="2" /><path d="M 83 92 L 82 93 L 80 93 L 79 94 L 78 94 L 77 94 L 75 95 L 74 95 L 73 95 L 72 96 L 71 96 L 70 96 L 69 96 L 68 97 L 67 97 L 66 97 L 64 98 L 63 98 L 62 98 L 61 98 L 60 99 L 59 99 L 57 100 Z" fill="none" stroke="yellow" stroke-width="2" /><path d="M 42 78 L 41 79 L 40 79 L 39 80 L 38 80 L 36 80 L 35 80 L 34 81 L 33 81 L 32 81 L 31 82 L 30 82 L 29 82 L 27 83 L 26 83 L 25 83 L 24 83 L 23 84 L 22 84 L 21 84 L 19 85 Z" fill="none" stroke="purple" stroke-width="2" /><path d="M 152 103 L 150 103 L 149 103 L 148 103 L 147 104 L 146 104 L 145 104 L 144 104 L 143 105 L 141 105 L 140 105 L 139 105 L 138 106 L 137 106 L 136 106 L 135 106 L 134 106 L 133 107 L 132 107 L 131 107 L 128 108 Z" fill="none" stroke="orange" stroke-width="2" /><path d="M 117 16 L 117 17 L 117 19 L 118 20 L 118 21 L 119 22 L 119 23 L 120 24 L 120 24 L 121 25 L 121 26 L 122 27 L 123 28 L 123 29 L 124 30 L 125 33 L 126 34 L 127 35 L 127 36 L 127 37 L 128 38 L 129 39 L 129 40 L 130 41 L 130 42 L 131 43 L 132 44 L 132 45 L 133 46 L 133 47 L 134 48 L 135 49 L 135 50 L 136 52 L 138 53 L 138 54 L 138 56 L 139 57 L 139 58 L 140 59 L 141 60 L 141 61 L 142 62 L 142 63 L 143 64 L 143 65 L 144 66 L 145 66 L 145 67 L 146 68 L 146 69 L 147 70 L 147 71 L 148 72 L 149 75 Z" fill="none" stroke="red" stroke-width="2" /><path d="M 44 79 L 44 80 L 45 81 L 46 82 L 46 84 L 47 85 L 47 86 L 48 87 L 49 87 L 49 88 L 50 89 L 50 90 L 51 91 L 51 92 L 52 93 L 52 94 L 53 95 L 53 96 L 54 98 L 55 99 L 57 100 L 57 102 L 57 103 L 58 104 L 59 105 L 59 106 L 61 109 L 61 110 Z" fill="none" stroke="green" stroke-width="2" /><path d="M 12.680000305175781 24.920000076293945 L 13.219096183776855 25.952869415283203 L 13.776989936828613 26.97503089904785 L 14.349592208862305 27.988815307617188 L 14.932811737060547 28.996549606323242 L 15.522558212280273 30.00056266784668 L 16.1147403717041 31.003185272216797 L 16.70526885986328 32.006744384765625 L 17.29005241394043 33.01357650756836 L 17.864999771118164 34.0260009765625 L 18.60587501525879 35.502376556396484 L 19.198999404907227 37.04999923706055 L 20.21500015258789 37.43000030517578 L 20.6436767578125 38.48394775390625 L 21.114816665649414 39.509254455566406 L 21.621078491210938 40.510528564453125 L 22.155128479003906 41.492366790771484 L 22.709625244140625 42.459373474121094 L 23.277231216430664 43.41615295410156 L 23.850610733032227 44.36730194091797 L 24.42242431640625 45.31742477416992 L 24.985332489013672 46.271121978759766 L 25.531999588012695 47.233001708984375 L 26.11857795715332 48.28605270385742 L 26.709964752197266 49.336605072021484 L 27.306076049804688 50.38460159301758 L 27.906822204589844 51.42999267578125 L 28.512117385864258 52.47272491455078 L 29.121871948242188 53.51274490356445 L 29.736000061035156 54.54999923706055 L 30.56100082397461 56.95899963378906 Z" fill="none" stroke="blue" stroke-width="2" /><path d="M 168 71 L 167 71 L 165 71 L 164 71 L 163 72 L 162 72 L 160 72 L 159 73 L 158 73 L 157 73 L 156 74 L 155 74 L 153 74 L 152 75 L 150 76 Z" fill="none" stroke="yellow" stroke-width="2" /><path d="M 75 8 L 75 7 L 74 7 L 74 6 L 74 5 L 73 5 L 73 4 L 73 3 L 72 3 L 72 2 L 72 1 L 71 1 L 71 0 L 71 1 L 72 1 L 72 2 L 72 3 L 73 3 L 73 4 L 73 5 L 74 5 L 74 6 L 74 7 L 75 7 L 75 8 L 75 9 L 76 9 L 76 10 L 76 11 L 77 11 L 77 12 L 77 13 L 78 13 L 78 14 L 78 15 L 79 15 L 79 16 L 79 15 L 78 15 L 78 14 L 78 13 L 77 13 L 77 12 L 77 11 L 76 11 L 76 10 L 76 9 L 75 9 L 75 8" fill="none" stroke="purple" stroke-width="2" /><path d="M 151 49 L 149 49 L 147 50 L 146 50 L 145 51 L 144 51 L 143 51 L 141 52 L 140 52 L 137 53 Z" fill="none" stroke="orange" stroke-width="2" /><path d="M 140 30 L 139 30 L 138 30 L 137 30 L 136 31 L 135 31 L 133 31 L 131 32 L 130 32 L 128 33 L 126 34 Z" fill="none" stroke="red" stroke-width="2" /><path d="M 19 37 L 18 37 L 16 38 L 15 38 L 14 38 L 13 39 L 12 39 L 11 39 L 10 40 L 9 40 L 8 40 L 7 41 L 5 41 Z" fill="none" stroke="green" stroke-width="2" /></g></svg>