<?xml version="1.0" encoding="utf-8" ?>
<svg baseProfile="tiny" height="100%" shape-rendering="crispEdges" version="1.2" width="100%" xmlns="http://www.w3.org/2000/svg" xmlns:ev="http://www.w3.org/2001/xml-events" xmlns:xlink="http://www.w3.org/1999/xlink"><defs /><g><path d="M 41 68 L 41 69 L 40 70 L 39 71 L 39 72 L 38 73 L 38 74 L 37 74 L 36 75 L 36 76 L 35 77 L 35 78 L 34 79 L 34 80 L 33 81 L 32 82 L 32 83 L 32 84 L 31 85 L 31 86 L 30 87 L 30 88 L 30 88 L 29 89 L 29 90 L 29 91 L 28 92 L 28 93 L 28 94 L 27 95 L 27 96 L 27 97 L 27 98 L 26 99 L 26 100 L 26 101 L 26 102 L 26 103 L 25 104 L 25 105 L 25 106 L 25 107 L 25 108 L 25 109 L 25 110 L 25 111 L 24 112 L 24 113 L 24 114 L 24 115 L 24 116 L 24 117 L 24 118 L 24 119 L 24 120 L 24 121 L 24 122 L 24 123 L 25 124 L 25 125 L 25 126 L 25 127 L 25 128 L 25 129 L 25 130 L 25 131 L 26 132 L 26 133 L 26 134 L 26 134 L 26 135 L 27 136 L 27 137 L 27 138 L 28 139 L 28 140 L 28 141 L 28 142 L 29 143 L 29 144 L 30 145 L 30 146 L 30 147 L 31 148 L 31 149 L 32 150 L 32 151 L 33 152 L 33 153 L 34 154 L 35 154 L 35 155 L 36 156 L 36 157 Z" fill="none" stroke="red" stroke-width="2" /><path d="M 176 67 L 175 66 L 175 65 L 174 64 L 174 64 L 173 63 L 172 62 L 172 61 L 171 60 L 170 59 L 170 59 L 169 58 L 168 57 L 168 56 L 167 55 L 166 55 L 165 54 L 165 53 L 164 52 L 163 52 L 162 51 L 162 50 L 161 50 L 160 49 L 159 48 L 158 48 L 158 47 L 157 47 L 156 46 L 155 46 L 155 45 L 154 45 L 153 44 L 152 44 L 152 44 L 151 43 L 150 43 L 149 42 L 149 42 L 148 42 L 147 41 L 146 41 L 145 41 L 145 40 L 144 40 L 143 40 L 142 39 L 141 39 L 140 39 L 139 38 L 139 38 L 138 38 L 137 38 L 136 37 L 135 37 L 134 37 L 133 37 L 133 37 L 132 36 L 131 36 L 130 36 L 129 36 L 128 36 L 127 36 L 126 36 L 125 35 L 125 35 L 124 35 L 123 35 L 122 35 L 121 35 L 120 35 L 119 35 L 118 35 L 117 35 L 116 35 L 115 35 L 115 35 L 114 35 L 113 35 L 112 35 L 111 35 L 110 35 L 109 35 L 108 35 L 107 35 L 106 35 L 105 35 L 104 36 L 103 36 L 102 36 L 102 36 L 101 36 L 100 36 L 99 36 L 98 37 L 97 37 L 96 37 L 95 37 L 94 37 L 93 38 L 92 38 L 91 38 L 90 38 L 90 38 L 89 39 L 88 39 L 87 39 L 86 40 L 85 40 L 84 40 L 83 40 L 82 41 L 81 41 L 81 41 L 80 42 L 79 42 L 78 42 L 77 43 L 76 43 L 75 44 L 74 44 L 74 44 L 73 45 L 72 45 L 71 46 L 70 46 L 69 46 L 68 47 L 68 47 L 67 48 L 66 48 L 65 49 L 64 49 L 63 50 L 63 50 L 62 51 L 61 51 L 60 52 L 60 52 L 59 53 L 58 53 L 57 54 L 56 54 L 56 55 L 55 56 L 54 56 L 53 57 L 53 57 L 52 58 L 51 59 L 51 59 L 50 60 L 49 60 L 48 61 L 48 62 L 47 62 L 46 63 L 46 64 L 45 64 L 45 65 L 44 66 L 43 66 L 43 67 L 42 68 L 41 68 Z" fill="none" stroke="green" stroke-width="2" /><path d="M 42 70 L 43 70 L 44 71 L 44 71 L 45 72 L 45 72 L 46 73 L 46 73 L 47 73 L 48 74 L 48 74 L 49 74 L 50 75 L 50 75 L 51 75 L 51 76 L 52 76 L 53 76 L 53 76 L 54 76 L 55 77 L 56 77 L 56 77 L 57 77 L 58 77 L 58 77 L 59 77 L 60 78 L 60 78 L 61 78 L 62 78 L 62 78 L 63 78 L 64 79 L 64 79 L 65 79 L 66 79 L 66 79 L 67 80 L 68 80 L 68 80 L 69 81 L 70 81 L 70 81 L 71 82 L 72 82 L 72 83 L 73 83 L 73 83 L 74 84 L 75 85 L 75 85 L 76 86 L 76 87 L 77 87 L 77 88 L 78 89 L 78 90 L 79 91 L 79 92 L 80 93 L 80 94 L 80 95 L 81 95 L 81 96 L 81 97 L 81 98 L 81 99 L 82 100 L 82 101 L 82 102 L 82 103 L 82 104 L 82 105 L 82 106 L 82 107 L 82 108 L 82 109 L 82 110 L 82 112 L 82 113 L 82 114 L 82 115 L 82 116 L 81 117 L 81 118 L 81 119 L 81 120 L 81 121 L 81 122 L 80 123 L 80 125 L 80 126 L 80 126 L 79 127 L 79 128 L 79 129 L 79 130 L 78 131 L 78 132 L 78 133 L 77 134 L 77 135 L 77 136 L 76 137 L 76 138 L 75 139 L 75 139 L 74 140 L 74 141 L 73 141 L 73 142 L 72 143 L 72 143 L 71 144 L 71 144 L 70 145 L 69 145 L 69 145 L 68 146 L 68 146 L 67 147 L 66 147 L 66 147 L 65 147 L 65 148 L 64 148 L 63 148 L 63 148 L 62 148 L 61 149 L 61 149 L 60 149 L 59 149 L 59 149 L 58 149 L 57 149 L 57 149 L 56 150 L 55 150 L 54 150 L 54 150 L 53 150 L 52 150 L 52 150 L 51 150 L 50 151 L 49 151 L 49 151 L 48 151 L 47 151 L 47 152 L 46 152 L 45 152 L 45 152 L 44 153 L 43 153 L 42 153 L 42 154 L 41 154 L 40 154 L 40 155 L 39 155 L 38 156 L 38 156 L 36 157 L 37 158 L 37 159 L 38 159 L 38 160 L 39 161 L 39 162 L 40 162 L 40 163 L 41 164 L 42 164 L 42 165 L 43 165 L 43 166 L 44 167 L 44 167 L 45 168 L 46 169 L 46 169 L 47 170 L 47 170 L 48 171 L 49 172 L 49 172 L 50 173 L 51 173 L 51 174 L 52 174 L 53 175 L 53 175 L 54 176 L 55 177 L 55 177 L 56 178 L 57 178 L 57 179 L 58 179 L 59 179 L 60 180 L 60 180 L 61 181 L 62 181 L 62 182 L 63 182 L 64 183 L 65 183 L 65 183 L 66 184 L 67 184 L 68 185 L 68 185 L 69 185 L 70 186 L 71 186 L 72 186 L 72 187 L 73 187 L 74 187 L 75 188 L 76 188 L 76 188 L 77 189 L 78 189 L 79 189 L 80 190 L 80 190 L 81 190 L 82 190 L 83 191 L 84 191 L 85 191 L 85 191 L 86 191 L 87 192 L 88 192 L 89 192 L 90 192 L 90 192 L 91 192 L 92 193 L 93 193 L 94 193 L 95 193 L 95 193 L 96 193 L 97 193 L 98 193 L 99 193 L 100 194 L 101 194 L 101 194 L 102 194 L 103 194 L 104 194 L 105 194 L 106 194 L 107 194 L 107 194 L 108 194 L 109 194 L 110 194 L 111 194 L 112 194 L 113 194 L 113 193 L 114 193 L 115 193 L 116 193 L 117 193 L 118 193 L 119 193 L 120 193 L 120 193 L 121 192 L 122 192 L 123 192 L 124 192 L 125 192 L 125 191 L 126 191 L 127 191 L 128 191 L 129 191 L 130 190 L 131 190 L 131 190 L 132 189 L 133 189 L 134 189 L 135 189 L 136 188 L 136 188 L 137 188 L 138 187 L 139 187 L 140 187 L 140 186 L 141 186 L 142 185 L 143 185 L 144 185 L 145 184 L 145 184 L 146 183 L 147 183 L 148 182 L 148 182 L 149 181 L 150 181 L 151 180 L 152 180 L 152 179 L 153 179 L 154 178 L 155 178 L 155 177 L 156 176 L 157 176 L 158 175 L 158 175 L 159 174 L 160 173 L 160 173 L 161 172 L 162 171 L 163 171 L 163 170 L 164 169 L 165 168 L 165 168 L 166 167 Z" fill="none" stroke="blue" stroke-width="2" /><path d="M 192 117 L 191 121 L 191 125 L 190 128 L 188 132 L 187 136 L 185 139 L 183 142 L 180 145 L 177 148 L 175 150 L 171 152 L 168 154 L 165 156 L 161 157 L 158 158 L 154 159 L 151 159 L 147 159 L 143 158 L 140 158 L 136 157 L 133 155 L 129 153 L 126 151 L 123 149 L 121 147 L 118 144 L 116 141 L 114 137 L 112 134 L 111 130 L 110 127 L 109 123 L 108 119 L 108 115 L 108 111 L 109 107 L 109 103 L 110 100 L 112 96 L 113 92 L 115 89 L 117 86 L 120 83 L 123 80 L 125 78 L 129 76 L 132 74 L 135 72 L 139 71 L 142 70 L 146 69 L 149 69 L 153 69 L 157 70 L 160 70 L 164 71 L 167 73 L 171 75 L 174 77 L 177 79 L 179 81 L 182 84 L 184 87 L 186 91 L 188 94 L 189 98 L 190 101 L 191 105 L 192 109 L 192 113 L 192 117" fill="none" stroke="yellow" stroke-width="2" /><path d="M 13.244999885559082 227.7550048828125 L 13.163928985595703 226.75363159179688 L 13.08298397064209 225.75216674804688 L 13.002167701721191 224.75062561035156 L 12.921480178833008 223.74899291992188 L 12.840924263000488 222.74728393554688 L 12.760501861572266 221.74549865722656 L 12.680213928222656 220.74363708496094 L 12.60006332397461 219.74168395996094 L 12.520050048828125 218.73965454101562 L 12.440177917480469 217.737548828125 L 12.360447883605957 216.73536682128906 L 12.280861854553223 215.7331085205078 L 12.201420783996582 214.7307586669922 L 12.122127532958984 213.7283477783203 L 12.042983055114746 212.72586059570312 L 11.9639892578125 211.72329711914062 L 11.885149002075195 210.72064208984375 L 11.806462287902832 209.7179412841797 L 11.727932929992676 208.71514892578125 L 11.649560928344727 207.7122802734375 L 11.571348190307617 206.7093505859375 L 11.493297576904297 205.7063446044922 L 11.415410041809082 204.70327758789062 L 11.337687492370605 203.70013427734375 L 11.2601318359375 202.69691467285156 L 11.182744979858398 201.69363403320312 L 11.105527877807617 200.69027709960938 L 11.028483390808105 199.68685913085938 L 10.951613426208496 198.68338012695312 L 10.874917984008789 197.67982482910156 L 10.79840087890625 196.67620849609375 L 10.722063064575195 195.6725311279297 L 10.645905494689941 194.6687774658203 L 10.569931030273438 193.6649627685547 L 10.494141578674316 192.6610870361328 L 10.418538093566895 191.6571502685547 L 10.343122482299805 190.6531524658203 L 10.267897605895996 189.6490936279297 L 10.192863464355469 188.6449737548828 L 10.118022918701172 187.6407928466797 L 10.043377876281738 186.6365509033203 L 9.968929290771484 185.6322479248047 L 9.89468002319336 184.62789916992188 L 9.82063102722168 183.62347412109375 L 9.746784210205078 182.61900329589844 L 9.673141479492188 181.61448669433594 L 9.59970474243164 180.60989379882812 L 9.526474952697754 179.60525512695312 L 9.453454971313477 178.60055541992188 L 9.380645751953125 177.59580993652344 L 9.308050155639648 176.59100341796875 L 9.235669136047363 175.58615112304688 L 9.163503646850586 174.5812530517578 L 9.091557502746582 173.5762939453125 L 9.019830703735352 172.5712890625 L 8.948326110839844 171.56622314453125 L 8.877044677734375 170.5611114501953 L 8.805988311767578 169.5559539794922 L 8.735158920288086 168.55075073242188 L 8.664559364318848 167.54550170898438 L 8.594189643859863 166.5402069091797 L 8.524052619934082 165.53485107421875 L 8.45414924621582 164.5294647216797 L 8.384482383728027 163.52403259277344 L 8.31505298614502 162.51853942871094 L 8.24586296081543 161.5130157470703 L 8.17691421508789 160.5074462890625 L 8.108208656311035 159.5018310546875 L 8.039748191833496 158.49618530273438 L 7.971533298492432 157.490478515625 L 7.903567314147949 156.48475646972656 L 7.835851669311523 155.47897338867188 L 7.768387794494629 154.47315979003906 L 7.70117712020874 153.46730041503906 L 7.634222030639648 152.46141052246094 L 7.567524433135986 151.45547485351562 L 7.5010857582092285 150.4495086669922 L 7.43490743637085 149.44349670410156 L 7.368991851806641 148.4374542236328 L 7.303340435028076 147.43138122558594 L 7.237955093383789 146.42527770996094 L 7.172837734222412 145.41912841796875 L 7.10798978805542 144.41294860839844 L 7.0434136390686035 143.40673828125 L 6.979110240936279 142.40049743652344 L 6.91508150100708 141.39422607421875 L 6.851329803466797 140.38792419433594 L 6.787856578826904 139.38157653808594 L 6.724663257598877 138.37521362304688 L 6.661752223968506 137.3688201904297 L 6.599124431610107 136.36239624023438 L 6.536782741546631 135.35595703125 L 6.474728107452393 134.34947204589844 L 6.412962436676025 133.3429718017578 L 6.351487636566162 132.33644104003906 L 6.2903056144714355 131.3298797607422 L 6.2294182777404785 130.32330322265625 L 6.168826580047607 129.3166961669922 L 6.108532905578613 128.31007385253906 L 6.048539161682129 127.30342102050781 L 5.988846778869629 126.2967529296875 L 5.929457664489746 125.29005432128906 L 5.870373249053955 124.28334045410156 L 5.811595916748047 123.27660369873047 L 5.753127098083496 122.26985168457031 L 5.6949687004089355 121.26307678222656 L 5.63712215423584 120.25628662109375 L 5.57958984375 119.24947357177734 L 5.522372722625732 118.24264526367188 L 5.465473175048828 117.23580169677734 L 5.40889310836792 116.22894287109375 L 5.352633953094482 115.2220687866211 L 5.29669713973999 114.21517944335938 L 5.241085052490234 113.2082748413086 L 5.1857991218566895 112.20135498046875 L 5.130841255187988 111.19442749023438 L 5.076213359832764 110.18748474121094 L 5.021917343139648 109.18052673339844 L 4.967954158782959 108.1735610961914 L 4.914326190948486 107.16658782958984 L 4.861035346984863 106.15960693359375 L 4.8080830574035645 105.1526107788086 L 4.755471229553223 104.1456069946289 L 4.7032012939453125 103.13859558105469 L 4.651275634765625 102.13157653808594 L 4.599695682525635 101.12454986572266 L 4.548463344573975 100.11752319335938 L 4.497580528259277 99.11048889160156 L 4.447048187255859 98.10344696044922 L 4.39686918258667 97.09639739990234 L 4.347044467926025 96.08935546875 L 4.297576427459717 95.0822982788086 L 4.248466491699219 94.07524871826172 L 4.199716567993164 93.06819152832031 L 4.151328086853027 92.0611343383789 L 4.103302955627441 91.0540771484375 L 4.055643558502197 90.0470199584961 L 4.008350849151611 89.03997039794922 L 3.9614269733428955 88.03291320800781 L 3.9148736000061035 87.02586364746094 L 3.868692636489868 86.01881408691406 L 3.822885751724243 85.01176452636719 L 3.7774548530578613 84.00472259521484 L 3.7324013710021973 82.99768829345703 L 3.687727451324463 81.99065399169922 L 3.643434762954712 80.98362731933594 L 3.599524974822998 79.97660827636719 L 3.555999994277954 78.96959686279297 L 3.512861490249634 77.96259307861328 L 3.470111131668091 76.9555892944336 L 3.427750825881958 75.94860076904297 L 3.385782480239868 74.9416275024414 L 3.344207525253296 73.93465423583984 L 3.303028106689453 72.92770385742188 L 3.2622458934783936 71.9207534790039 L 3.221862316131592 70.913818359375 L 3.1818795204162598 69.90689849853516 L 3.142299175262451 68.89999389648438 L 3.103123188018799 67.89309692382812 L 3.0643529891967773 66.88621520996094 L 3.0259907245635986 65.87934875488281 L 2.9880378246307373 64.87250518798828 L 2.950496196746826 63.86566925048828 L 2.913367748260498 62.858856201171875 L 2.8766541481018066 61.85205841064453 L 2.8403573036193848 60.845279693603516 L 2.804478645324707 59.83851623535156 L 2.7690200805664062 58.8317756652832 L 2.7339837551116943 57.82505416870117 L 2.699370861053467 56.818355560302734 L 2.6651835441589355 55.811676025390625 L 2.6314234733581543 54.80501937866211 L 2.5980923175811768 53.79838562011719 L 2.5651919841766357 52.79177474975586 L 2.532724380493164 51.785186767578125 L 2.5006909370422363 50.77862548828125 L 2.4690935611724854 49.77208709716797 L 2.437934160232544 48.76557540893555 L 2.407214403152466 47.759090423583984 L 2.3769359588623047 46.75263214111328 L 2.3471007347106934 45.74620056152344 L 2.3177106380462646 44.73979949951172 L 2.288767099380493 43.73342514038086 L 2.2602720260620117 42.727081298828125 L 2.232227325439453 41.72076416015625 L 2.204634666442871 40.714481353759766 L 2.1774959564208984 39.708229064941406 L 2.1508126258850098 38.70201110839844 L 2.124586820602417 37.695823669433594 L 2.0988199710845947 36.689666748046875 L 2.073514223098755 35.68354797363281 L 2.048671007156372 34.677459716796875 L 2.024292230606079 33.671409606933594 L 2.0003795623779297 32.6653938293457 L 1.9769351482391357 31.659414291381836 L 1.9539602994918823 30.653470993041992 L 1.9314570426940918 29.647565841674805 L 1.9094271659851074 28.641700744628906 L 1.8878722190856934 27.63587188720703 L 1.866794228553772 26.630083084106445 L 1.846194863319397 25.62433433532715 L 1.826075792312622 24.618627548217773 L 1.80643892288208 23.612960815429688 L 1.7872860431671143 22.607336044311523 L 1.7686188220977783 21.601755142211914 L 1.7504390478134155 20.596216201782227 L 1.7327485084533691 19.59071922302246 L 1.715549111366272 18.585269927978516 L 1.6988424062728882 17.579864501953125 L 1.682630181312561 16.57450294494629 L 1.666914463043213 15.569189071655273 L 1.6516966819763184 14.563922882080078 L 1.6369788646697998 13.558703422546387 L 1.622762680053711 12.553531646728516 L 1.609049916267395 11.548408508300781 L 1.5958423614501953 10.543335914611816 L 1.583141803741455 9.538311958312988 L 1.570949912071228 8.533339500427246 L 1.5592684745788574 7.528418064117432 L 1.548099398612976 6.523548603057861 L 1.5374443531036377 5.518731594085693 L 1.5273051261901855 4.513967514038086 L 1.5176833868026733 3.5092570781707764 L 1.5085811614990234 2.504601001739502 L 1.5 1.5 Z" fill="none" stroke="purple" stroke-width="2" /><path d="M 224 215 L 223 215 L 222 216 L 221 216 L 220 216 L 219 216 L 218 216 L 217 217 L 216 217 L 215 217 L 214 217 L 213 217 L 212 218 L 211 218 L 210 218 L 209 218 L 208 218 L 207 219 L 206 219 L 205 219 L 204 219 L 203 219 L 202 219 L 201 220 L 200 220 L 199 220 L 198 220 L 197 220 L 196 220 L 195 221 L 194 221 L 193 221 L 192 221 L 191 221 L 190 221 L 189 222 L 188 222 L 187 222 L 186 222 L 185 222 L 184 222 L 183 222 L 182 223 L 181 223 L 180 223 L 179 223 L 178 223 L 177 223 L 176 223 L 175 224 L 174 224 L 173 224 L 172 224 L 171 224 L 170 224 L 169 224 L 168 225 L 167 225 L 166 225 L 165 225 L 164 225 L 163 225 L 162 225 L 161 225 L 160 226 L 159 226 L 158 226 L 157 226 L 156 226 L 155 226 L 154 226 L 153 226 L 152 227 L 151 227 L 150 227 L 149 227 L 148 227 L 147 227 L 146 227 L 145 227 L 144 228 L 143 228 L 142 228 L 141 228 L 140 228 L 139 228 L 138 228 L 137 228 L 136 228 L 135 229 L 134 229 L 133 229 L 132 229 L 131 229 L 130 229 L 129 229 L 128 229 L 127 229 L 126 230 L 125 230 L 124 230 L 123 230 L 122 230 L 121 230 L 119 230 L 118 230 L 117 230 L 116 231 L 115 231 L 114 231 L 113 231 L 112 231 L 111 231 L 110 231 L 109 231 L 108 231 L 107 232 L 106 232 L 105 232 L 104 232 L 103 232 L 102 232 L 101 232 L 100 232 L 99 232 L 98 232 L 97 232 L 96 233 L 95 233 L 94 233 L 93 233 L 92 233 L 91 233 L 90 233 L 89 233 L 88 233 L 87 233 L 86 233 L 84 233 L 83 233 L 82 233 L 81 233 L 80 233 L 79 233 L 78 233 L 77 233 L 76 233 L 75 233 L 74 233 L 73 233 L 72 233 L 71 233 L 70 233 L 69 233 L 68 232 L 67 232 L 66 232 L 65 232 L 63 232 L 62 232 L 61 232 L 60 232 L 59 232 L 58 232 L 57 232 L 56 231 L 55 231 L 54 231 L 53 231 L 52 231 L 51 231 L 50 231 L 49 231 L 48 231 L 47 231 L 46 230 L 45 230 L 44 230 L 43 230 L 42 230 L 41 230 L 40 230 L 39 230 L 38 230 L 37 230 L 35 229 L 34 229 L 33 229 L 32 229 L 31 229 L 30 229 L 29 229 L 28 229 L 27 229 L 26 229 L 25 228 L 24 228 L 23 228 L 22 228 L 21 228 L 20 228 L 19 228 L 18 228 L 17 228 L 16 228 L 15 227 L 14 227 L 13 227 Z" fill="none" stroke="orange" stroke-width="2" /><path d="M 216 2 L 216 3 L 217 4 L 217 5 L 217 6 L 217 7 L 217 7 L 218 8 L 218 9 L 218 10 L 218 11 L 218 12 L 219 13 L 219 14 L 219 15 L 219 16 L 219 17 L 219 18 L 220 19 L 220 20 L 220 21 L 220 22 L 220 23 L 220 24 L 220 25 L 221 26 L 221 27 L 221 28 L 221 29 L 221 30 L 221 31 L 221 32 L 222 33 L 222 34 L 222 35 L 222 36 L 222 37 L 222 38 L 222 39 L 223 40 L 223 41 L 223 42 L 223 43 L 223 44 L 223 45 L 223 46 L 223 47 L 223 48 L 224 49 L 224 50 L 224 51 L 224 52 L 224 53 L 224 54 L 224 55 L 224 56 L 224 57 L 224 58 L 224 59 L 225 60 L 225 61 L 225 62 L 225 63 L 225 64 L 225 65 L 225 66 L 225 67 L 225 68 L 225 69 L 225 70 L 225 71 L 225 72 L 226 73 L 226 74 L 226 75 L 226 76 L 226 77 L 226 78 L 226 79 L 226 80 L 226 81 L 226 82 L 226 83 L 226 84 L 226 85 L 226 86 L 226 87 L 226 88 L 226 89 L 226 90 L 226 91 L 226 92 L 226 93 L 227 94 L 227 95 L 227 96 L 227 97 L 227 98 L 227 99 L 227 100 L 227 101 L 227 102 L 227 103 L 227 104 L 227 105 L 227 106 L 227 107 L 227 108 L 227 109 L 227 110 L 227 111 L 227 112 L 227 113 L 227 114 L 227 115 L 227 116 L 227 117 L 227 118 L 227 119 L 227 120 L 227 121 L 227 122 L 227 123 L 227 124 L 227 125 L 227 126 L 227 127 L 227 128 L 227 129 L 227 130 L 227 131 L 227 132 L 227 133 L 227 134 L 227 135 L 227 136 L 227 137 L 227 138 L 227 139 L 227 140 L 227 141 L 227 142 L 227 143 L 227 144 L 227 145 L 227 146 L 227 147 L 227 148 L 227 149 L 227 150 L 227 151 L 227 152 L 227 153 L 227 154 L 227 155 L 227 156 L 226 157 L 226 158 L 226 159 L 226 160 L 226 161 L 226 162 L 226 163 L 226 164 L 226 165 L 226 166 L 226 167 L 226 168 L 226 169 L 226 170 L 226 171 L 226 172 L 226 173 L 226 174 L 226 175 L 226 176 L 226 177 L 226 178 L 226 179 L 226 180 L 226 181 L 226 182 L 226 183 L 226 184 L 225 185 L 225 186 L 225 187 L 225 188 L 225 189 L 225 190 L 225 191 L 225 192 L 225 193 L 225 194 L 225 195 L 225 196 L 225 197 L 225 198 L 225 199 L 225 200 L 225 201 L 225 202 L 225 203 L 225 204 L 225 205 L 225 206 L 225 207 L 224 208 L 224 209 L 224 210 L 224 211 L 224 212 L 224 213 L 224 214 L 224 215 Z" fill="none" stroke="red" stroke-width="2" /><path d="M 1.562000036239624 1.8760000467300415 L 2.5676867961883545 1.8770794868469238 L 3.573373556137085 1.8781589269638062 L 4.579060077667236 1.8792383670806885 L 5.584746837615967 1.8803178071975708 L 6.590433120727539 1.8813972473144531 L 7.596119403839111 1.8824766874313354 L 8.601805686950684 1.8835561275482178 L 9.607491493225098 1.8846355676651 L 10.613177299499512 1.8857150077819824 L 11.618863105773926 1.8867944478988647 L 12.624547958374023 1.887873888015747 L 13.630233764648438 1.8889533281326294 L 14.635919570922852 1.8900327682495117 L 15.64160442352295 1.891112208366394 L 16.647289276123047 1.8921915292739868 L 17.65297508239746 1.8932709693908691 L 18.658658981323242 1.8943504095077515 L 19.664344787597656 1.8954298496246338 L 20.670028686523438 1.8965092897415161 L 21.67571449279785 1.8975887298583984 L 22.681398391723633 1.8986681699752808 L 23.687082290649414 1.899747610092163 L 24.692766189575195 1.9008270502090454 L 25.69845199584961 1.9019064903259277 L 26.70413589477539 1.90298593044281 L 27.709819793701172 1.9040653705596924 L 28.715503692626953 1.9051448106765747 L 29.721187591552734 1.906224250793457 L 30.726869583129883 1.9073036909103394 L 31.732553482055664 1.9083831310272217 L 32.73823928833008 1.909462571144104 L 33.743919372558594 1.9105420112609863 L 34.749603271484375 1.9116214513778687 L 35.755287170410156 1.912700891494751 L 36.76097106933594 1.9137803316116333 L 37.76665496826172 1.9148597717285156 L 38.772335052490234 1.915939211845398 L 39.778018951416016 1.9170186519622803 L 40.7837028503418 1.9180980920791626 L 41.78938674926758 1.919177532196045 L 42.795066833496094 1.9202569723129272 L 43.800750732421875 1.9213364124298096 L 44.80643081665039 1.922415852546692 L 45.81211471557617 1.9234952926635742 L 46.81779861450195 1.9245747327804565 L 47.82347869873047 1.9256541728973389 L 48.82916259765625 1.9267336130142212 L 49.834842681884766 1.9278130531311035 L 50.84052658081055 1.9288924932479858 L 51.84620666503906 1.9299719333648682 L 52.851890563964844 1.9310513734817505 L 53.85757064819336 1.9321308135986328 L 54.86325454711914 1.9332102537155151 L 55.868934631347656 1.9342896938323975 L 56.87461471557617 1.9353691339492798 L 57.88029861450195 1.936448574066162 L 58.88597869873047 1.9375280141830444 L 59.891658782958984 1.9386074542999268 L 60.897342681884766 1.939686894416809 L 61.90302276611328 1.9407663345336914 L 62.9087028503418 1.9418457746505737 L 63.91438674926758 1.942925214767456 L 64.9200668334961 1.9440046548843384 L 65.92575073242188 1.9450840950012207 L 66.93142700195312 1.946163535118103 L 67.9371109008789 1.9472429752349854 L 68.94278717041016 1.9483224153518677 L 69.94847106933594 1.94940185546875 L 70.95415496826172 1.9504812955856323 L 71.95983123779297 1.9515607357025146 L 72.96551513671875 1.952640175819397 L 73.97119140625 1.9537196159362793 L 74.97687530517578 1.9547990560531616 L 75.98255920410156 1.955878496170044 L 76.98823547363281 1.9569579362869263 L 77.9939193725586 1.9580373764038086 L 78.99959564208984 1.959116816520691 L 80.00527954101562 1.9601962566375732 L 81.01095581054688 1.9612756967544556 L 82.01663970947266 1.962355136871338 L 83.0223159790039 1.9634345769882202 L 84.02799987792969 1.9645140171051025 L 85.03367614746094 1.9655934572219849 L 86.03936004638672 1.9666728973388672 L 87.04503631591797 1.9677523374557495 L 88.05072021484375 1.9688317775726318 L 89.056396484375 1.9699112176895142 L 90.06208038330078 1.9709906578063965 L 91.06776428222656 1.9720700979232788 L 92.07344055175781 1.9731495380401611 L 93.0791244506836 1.9742289781570435 L 94.08480072021484 1.9753084182739258 L 95.0904769897461 1.976387858390808 L 96.09616088867188 1.9774672985076904 L 97.10183715820312 1.9785467386245728 L 98.1075210571289 1.979626178741455 L 99.11319732666016 1.9807056188583374 L 100.11888122558594 1.9817850589752197 L 101.12455749511719 1.982864499092102 L 102.13024139404297 1.9839439392089844 L 103.13591766357422 1.9850233793258667 L 104.1416015625 1.986102819442749 L 105.14727783203125 1.9871822595596313 L 106.15296173095703 1.9882616996765137 L 107.15863800048828 1.989341139793396 L 108.16432189941406 1.9904205799102783 L 109.16999816894531 1.9915000200271606 L 110.1756820678711 1.992579460144043 L 111.18135833740234 1.9936589002609253 L 112.18704223632812 1.9947383403778076 L 113.19271850585938 1.99581778049469 L 114.19840240478516 1.9968972206115723 L 115.2040786743164 1.9979766607284546 L 116.20976257324219 1.999056100845337 L 117.21543884277344 2.0001354217529297 L 118.22112274169922 2.0012149810791016 L 119.22679901123047 2.0022943019866943 L 120.23248291015625 2.003373861312866 L 121.2381591796875 2.004453182220459 L 122.24383544921875 2.005532741546631 L 123.24951934814453 2.0066120624542236 L 124.25519561767578 2.0076916217803955 L 125.26087951660156 2.0087709426879883 L 126.26655578613281 2.00985050201416 L 127.2722396850586 2.010929822921753 L 128.27792358398438 2.012009382247925 L 129.28359985351562 2.0130887031555176 L 130.28927612304688 2.0141682624816895 L 131.2949676513672 2.0152475833892822 L 132.30064392089844 2.016327142715454 L 133.3063201904297 2.017406463623047 L 134.31199645996094 2.0184860229492188 L 135.31768798828125 2.0195653438568115 L 136.3233642578125 2.0206449031829834 L 137.32904052734375 2.021724224090576 L 138.334716796875 2.022803783416748 L 139.3404083251953 2.023883104324341 L 140.34608459472656 2.0249626636505127 L 141.3517608642578 2.0260419845581055 L 142.35743713378906 2.0271215438842773 L 143.36312866210938 2.02820086479187 L 144.36880493164062 2.029280424118042 L 145.37448120117188 2.0303597450256348 L 146.3801727294922 2.0314393043518066 L 147.38584899902344 2.0325186252593994 L 148.3915252685547 2.0335981845855713 L 149.397216796875 2.034677505493164 L 150.40289306640625 2.035757064819336 L 151.4085693359375 2.0368363857269287 L 152.41424560546875 2.0379159450531006 L 153.41993713378906 2.0389952659606934 L 154.4256134033203 2.0400748252868652 L 155.43128967285156 2.041154146194458 L 156.43698120117188 2.04223370552063 L 157.44265747070312 2.0433130264282227 L 158.44833374023438 2.0443925857543945 L 159.4540252685547 2.0454719066619873 L 160.45970153808594 2.046551465988159 L 161.4653778076172 2.047630786895752 L 162.4710693359375 2.048710346221924 L 163.47674560546875 2.0497896671295166 L 164.482421875 2.0508692264556885 L 165.4881134033203 2.0519485473632812 L 166.49378967285156 2.053028106689453 L 167.49948120117188 2.054107427597046 L 168.50515747070312 2.0551869869232178 L 169.51083374023438 2.0562663078308105 L 170.5165252685547 2.0573458671569824 L 171.52220153808594 2.058425188064575 L 172.5278778076172 2.059504747390747 L 173.5335693359375 2.06058406829834 L 174.53924560546875 2.0616636276245117 L 175.54493713378906 2.0627429485321045 L 176.5506134033203 2.0638225078582764 L 177.55630493164062 2.064901828765869 L 178.56198120117188 2.065981388092041 L 179.56765747070312 2.067060708999634 L 180.57334899902344 2.0681402683258057 L 181.5790252685547 2.0692195892333984 L 182.584716796875 2.0702991485595703 L 183.59039306640625 2.071378469467163 L 184.59608459472656 2.072458028793335 L 185.6017608642578 2.0735373497009277 L 186.60745239257812 2.0746169090270996 L 187.61312866210938 2.0756962299346924 L 188.6188201904297 2.0767757892608643 L 189.62449645996094 2.077855110168457 L 190.63018798828125 2.078934669494629 L 191.6358642578125 2.0800139904022217 L 192.6415557861328 2.0810935497283936 L 193.64723205566406 2.0821728706359863 L 194.65292358398438 2.083252429962158 L 195.65859985351562 2.084331750869751 L 196.66429138183594 2.085411310195923 L 197.6699676513672 2.0864906311035156 L 198.6756591796875 2.0875701904296875 L 199.68133544921875 2.0886495113372803 L 200.68702697753906 2.089729070663452 L 201.6927032470703 2.090808391571045 L 202.69839477539062 2.091887950897217 L 203.70408630371094 2.0929672718048096 L 204.7097625732422 2.0940468311309814 L 205.7154541015625 2.095126152038574 L 206.72113037109375 2.096205711364746 L 207.72682189941406 2.097285032272339 L 208.73251342773438 2.0983645915985107 L 209.73818969726562 2.0994439125061035 L 210.74388122558594 2.1005234718322754 L 211.74957275390625 2.101602792739868 L 212.7552490234375 2.10268235206604 L 213.7609405517578 2.103761672973633 L 214.76663208007812 2.1048412322998047 L 215.77230834960938 2.1059205532073975 L 216.7779998779297 2.1070001125335693 Z" fill="none" stroke="green" stroke-width="2" /></g></svg>