<?xml version="1.0" encoding="utf-8" ?>
<svg baseProfile="tiny" height="100%" shape-rendering="crispEdges" version="1.2" width="100%" xmlns="http://www.w3.org/2000/svg" xmlns:ev="http://www.w3.org/2001/xml-events" xmlns:xlink="http://www.w3.org/1999/xlink"><defs /><g><path d="M 139 249 L 133 249 L 127 249 L 121 248 L 115 246 L 109 244 L 103 242 L 98 239 L 93 236 L 88 233 L 84 229 L 80 225 L 76 220 L 73 215 L 71 210 L 68 205 L 67 200 L 66 194 L 65 189 L 65 183 L 66 178 L 67 172 L 68 167 L 70 161 L 73 156 L 76 151 L 80 147 L 83 142 L 88 138 L 93 135 L 98 132 L 103 129 L 109 126 L 114 124 L 120 123 L 126 122 L 133 121 L 139 121 L 145 121 L 151 122 L 157 124 L 163 126 L 169 128 L 174 131 L 179 134 L 184 137 L 188 141 L 192 145 L 196 150 L 199 155 L 201 160 L 204 165 L 205 170 L 206 176 L 207 181 L 207 187 L 206 192 L 205 198 L 204 203 L 202 209 L 199 214 L 196 219 L 192 223 L 189 228 L 184 232 L 179 235 L 174 238 L 169 241 L 163 244 L 158 246 L 152 247 L 146 248 L 139 249" fill="none" stroke="red" stroke-width="2" /><path d="M 140 11 L 141 12 L 142 13 L 142 13 L 143 14 L 144 14 L 144 15 L 145 15 L 146 16 L 147 16 L 147 17 L 148 17 L 149 18 L 150 19 L 151 19 L 152 20 L 153 20 L 154 21 L 154 21 L 155 22 L 156 22 L 157 23 L 158 23 L 159 24 L 160 24 L 161 25 L 162 25 L 163 26 L 164 26 L 165 27 L 166 27 L 167 27 L 168 28 L 169 28 L 170 29 L 171 29 L 172 30 L 173 30 L 174 31 L 175 31 L 176 32 L 177 32 L 178 33 L 178 33 L 179 34 L 180 34 L 181 35 L 182 35 L 183 36 L 184 36 L 185 37 L 185 37 L 186 38 L 187 38 L 188 39 L 188 39 L 189 39 L 190 40 L 191 39 L 191 38 L 192 37 L 193 37 L 194 36 L 194 35 L 195 34 L 196 33 L 196 32 L 197 32 L 198 31 L 198 30 L 199 29 L 200 29 L 200 28 L 201 27 L 201 26 L 202 26 L 203 25 L 203 24 L 204 23 L 205 23 L 205 22 L 206 21 L 206 20 L 207 20 L 208 19 L 208 18 L 209 18 L 209 17 L 210 16 L 211 16 L 211 15 L 212 14 L 213 14 L 213 13 L 214 12 L 215 12 L 215 11 L 216 10 L 217 10 L 217 9 L 218 8 L 219 8 L 220 7 L 221 6 L 221 6 L 222 5 L 223 4 L 224 3 L 225 3 L 226 2 L 227 1 L 228 1 L 228 2 L 227 3 L 227 4 L 227 5 L 227 6 L 227 7 L 227 8 L 227 10 L 227 11 L 227 12 L 226 13 L 226 14 L 226 15 L 226 16 L 226 16 L 226 17 L 226 18 L 225 19 L 225 20 L 225 21 L 225 22 L 225 23 L 224 24 L 224 25 L 224 26 L 224 27 L 223 28 L 223 28 L 223 29 L 222 30 L 222 31 L 222 32 L 222 33 L 221 34 L 221 35 L 221 36 L 220 37 L 220 37 L 220 38 L 219 39 L 219 40 L 218 41 L 218 42 L 218 43 L 217 44 L 217 45 L 216 46 L 216 47 L 216 48 L 215 49 L 215 50 L 214 51 L 214 52 L 215 52 L 216 53 L 217 53 L 217 53 L 218 54 L 219 54 L 220 54 L 221 54 L 222 55 L 223 55 L 224 56 L 225 56 L 226 56 L 227 57 L 228 57 L 229 58 L 229 58 L 230 59 L 231 59 L 232 59 L 233 60 L 234 60 L 235 61 L 236 61 L 237 62 L 238 62 L 239 63 L 240 63 L 240 64 L 241 64 L 242 64 L 243 65 L 244 65 L 245 66 L 246 66 L 247 67 L 248 67 L 249 68 L 250 68 L 251 68 L 252 69 L 252 69 L 253 69 L 254 70 L 255 70 L 256 70 L 257 71 L 258 71 L 259 71 L 260 72 L 261 72 L 262 72 L 261 73 L 260 73 L 259 74 L 258 74 L 258 75 L 257 75 L 256 76 L 255 76 L 254 77 L 253 77 L 253 77 L 252 78 L 251 78 L 250 78 L 249 78 L 248 79 L 247 79 L 246 79 L 245 79 L 244 79 L 244 80 L 243 80 L 242 80 L 241 80 L 240 80 L 239 80 L 238 80 L 237 80 L 236 80 L 235 80 L 234 80 L 233 80 L 232 80 L 231 80 L 230 80 L 229 81 L 228 81 L 227 81 L 226 81 L 225 81 L 224 81 L 223 81 L 222 81 L 221 81 L 220 81 L 219 81 L 218 81 L 217 81 L 216 81 L 215 81 L 214 81 L 213 81 L 212 82 L 211 82 L 210 82 L 209 82 L 209 83 L 209 84 L 209 85 L 209 86 L 208 86 L 208 87 L 208 88 L 208 89 L 208 90 L 208 91 L 207 92 L 207 93 L 207 94 L 207 95 L 207 96 L 207 97 L 207 98 L 206 99 L 206 101 L 206 102 L 206 103 L 206 104 L 206 105 L 206 106 L 206 107 L 206 108 L 205 109 L 205 110 L 205 111 L 205 113 L 205 114 L 205 115 L 205 116 L 205 117 L 205 118 L 205 119 L 205 120 L 205 121 L 205 122 L 205 123 L 205 124 L 205 125 L 205 126 L 205 128 L 205 129 L 205 130 L 205 131 L 205 132 L 205 132 L 205 133 L 205 134 L 205 135 L 205 136 L 205 137 L 205 138 L 205 139 L 204 138 L 204 137 L 203 137 L 203 136 L 202 135 L 202 134 L 201 133 L 200 133 L 200 132 L 199 131 L 199 130 L 198 129 L 198 128 L 197 128 L 197 127 L 196 126 L 196 125 L 195 124 L 195 123 L 194 122 L 194 121 L 193 120 L 193 119 L 192 118 L 192 118 L 191 117 L 191 116 L 190 115 L 190 114 L 189 113 L 189 112 L 188 111 L 188 110 L 187 109 L 187 108 L 186 107 L 186 106 L 186 105 L 185 104 L 185 103 L 185 102 L 184 101 L 184 100 L 183 99 L 183 98 L 183 97 L 183 97 L 182 96 L 182 95 L 182 94 L 181 93 L 181 92 L 181 91 L 181 90 L 181 89 L 180 88 L 180 87 L 179 87 L 178 87 L 177 87 L 176 87 L 175 87 L 174 87 L 173 87 L 172 87 L 171 87 L 170 87 L 169 88 L 168 88 L 167 88 L 166 88 L 165 88 L 164 88 L 163 88 L 162 88 L 161 89 L 160 89 L 159 89 L 158 89 L 157 89 L 156 90 L 155 90 L 154 90 L 153 90 L 152 91 L 151 91 L 150 91 L 149 91 L 149 92 L 148 92 L 147 92 L 146 93 L 145 93 L 144 93 L 143 94 L 142 94 L 141 94 L 140 94 L 139 95 L 138 95 L 137 95 L 136 96 L 135 96 L 134 96 L 133 97 L 132 97 L 131 97 L 130 98 L 129 98 L 128 98 L 127 99 L 127 98 L 128 97 L 129 96 L 129 95 L 130 94 L 130 94 L 131 93 L 132 92 L 132 91 L 133 90 L 134 89 L 134 89 L 135 88 L 136 87 L 136 86 L 137 86 L 138 85 L 138 84 L 139 83 L 140 83 L 140 82 L 141 81 L 142 80 L 143 80 L 143 79 L 144 78 L 145 78 L 146 77 L 147 76 L 147 76 L 148 75 L 149 74 L 150 74 L 151 73 L 151 72 L 152 72 L 153 71 L 154 71 L 155 70 L 156 70 L 157 68 L 158 67 L 158 66 L 159 66 L 160 65 L 161 64 L 162 63 L 163 62 L 164 61 L 165 60 L 166 59 L 166 58 L 166 58 L 166 57 L 166 56 L 166 55 L 165 54 L 165 53 L 165 52 L 164 51 L 164 50 L 164 49 L 163 48 L 163 47 L 162 47 L 162 46 L 161 45 L 161 44 L 160 43 L 160 43 L 160 42 L 159 41 L 158 40 L 158 40 L 157 39 L 157 38 L 156 38 L 156 37 L 155 36 L 155 35 L 154 35 L 154 34 L 153 33 L 153 33 L 152 32 L 151 31 L 151 31 L 150 30 L 150 29 L 149 28 L 149 28 L 148 27 L 148 26 L 147 26 L 147 25 L 146 24 L 146 23 L 145 22 L 145 22 L 144 21 L 144 20 L 143 19 L 143 18 L 143 17 L 142 16 L 142 15 L 141 14 L 141 13 L 141 12 L 140 11" fill="none" stroke="green" stroke-width="2" /><path d="M 7 0 L 8 0 L 9 0 L 11 0 L 12 0 L 13 0 L 14 0 L 15 0 L 16 0 L 17 0 L 18 0 L 19 0 L 20 1 L 21 1 L 22 1 L 23 1 L 24 1 L 25 1 L 26 1 L 27 1 L 28 1 L 29 1 L 30 1 L 31 1 L 32 1 L 33 1 L 34 1 L 35 1 L 36 1 L 37 1 L 38 1 L 39 1 L 40 1 L 41 1 L 42 1 L 43 1 L 44 1 L 45 1 L 46 1 L 47 1 L 48 2 L 49 2 L 50 2 L 51 2 L 52 2 L 53 2 L 54 2 L 55 2 L 56 2 L 57 2 L 58 2 L 59 2 L 60 2 L 61 2 L 62 2 L 63 2 L 64 2 L 65 3 L 66 3 L 67 3 L 68 3 L 69 3 L 70 3 L 71 3 L 72 3 L 73 3 L 74 3 L 75 3 L 76 3 L 77 3 L 78 4 L 79 4 L 80 4 L 81 4 L 82 4 L 83 4 L 84 4 L 85 4 L 86 4 L 87 4 L 88 4 L 89 5 L 90 5 L 91 5 L 92 5 L 93 5 L 94 5 L 95 5 L 96 5 L 97 5 L 98 5 L 99 6 L 100 6 L 101 6 L 102 6 L 103 6 L 104 6 L 105 6 L 106 6 L 107 6 L 108 7 L 109 7 L 110 7 L 111 9 L 111 10 L 111 11 L 111 12 L 111 13 L 111 14 L 111 15 L 111 16 L 111 17 L 110 18 L 110 19 L 110 20 L 110 21 L 110 22 L 110 23 L 110 24 L 110 25 L 110 26 L 110 27 L 110 28 L 110 29 L 110 30 L 110 31 L 110 32 L 110 33 L 110 34 L 110 35 L 110 36 L 109 37 L 109 38 L 109 39 L 109 40 L 109 41 L 109 42 L 109 43 L 109 45 L 109 46 L 109 47 L 109 48 L 109 49 L 109 50 L 109 51 L 109 52 L 109 53 L 109 54 L 109 55 L 108 56 L 108 57 L 108 58 L 108 59 L 108 60 L 108 61 L 108 62 L 108 63 L 108 64 L 108 65 L 108 66 L 108 67 L 108 68 L 108 69 L 108 70 L 108 71 L 108 72 L 108 73 L 107 74 L 107 75 L 107 76 L 107 77 L 107 78 L 107 79 L 107 80 L 107 81 L 107 82 L 107 83 L 107 84 L 107 85 L 107 86 L 107 87 L 107 88 L 107 89 L 107 90 L 107 91 L 106 92 L 106 93 L 106 94 L 106 95 L 106 96 L 106 97 L 106 98 L 106 99 L 106 100 L 106 101 L 106 102 L 106 103 L 106 104 L 106 105 L 106 106 L 106 107 L 106 108 L 106 109 L 106 110 L 105 111 L 105 112 L 105 113 L 105 114 L 105 115 L 105 117 L 104 118 L 102 119 L 101 119 L 100 119 L 99 119 L 98 120 L 97 120 L 96 120 L 95 120 L 94 120 L 93 120 L 92 120 L 91 120 L 90 120 L 89 120 L 88 121 L 87 121 L 86 121 L 85 121 L 84 121 L 83 121 L 82 121 L 81 121 L 80 121 L 79 121 L 78 121 L 77 121 L 76 121 L 75 121 L 74 121 L 73 121 L 72 121 L 71 121 L 70 121 L 69 121 L 68 121 L 67 121 L 66 121 L 65 121 L 64 121 L 63 121 L 62 121 L 61 121 L 60 121 L 59 121 L 58 121 L 57 121 L 56 121 L 55 121 L 54 121 L 53 121 L 52 121 L 51 120 L 50 120 L 49 120 L 48 120 L 47 120 L 46 120 L 45 120 L 44 120 L 43 120 L 42 120 L 41 120 L 40 120 L 38 119 L 37 119 L 36 119 L 35 119 L 34 119 L 33 119 L 32 119 L 31 119 L 30 119 L 29 118 L 28 118 L 27 118 L 26 118 L 25 118 L 24 118 L 23 118 L 22 118 L 21 117 L 20 117 L 19 117 L 18 117 L 17 117 L 16 117 L 15 117 L 14 117 L 13 116 L 12 116 L 11 116 L 10 116 L 9 116 L 8 116 L 7 115 L 6 115 L 5 115 L 4 115 L 2 114 L 2 112 L 2 111 L 1 110 L 1 109 L 1 107 L 1 106 L 1 105 L 1 104 L 1 103 L 1 102 L 1 101 L 1 100 L 1 99 L 1 98 L 1 97 L 1 96 L 1 95 L 1 94 L 1 93 L 1 92 L 1 91 L 1 90 L 1 89 L 1 88 L 1 87 L 1 85 L 1 84 L 1 83 L 1 82 L 0 81 L 0 80 L 0 79 L 0 78 L 0 77 L 0 76 L 0 75 L 0 74 L 0 73 L 0 72 L 0 71 L 0 70 L 0 69 L 0 68 L 0 67 L 0 66 L 0 65 L 0 64 L 0 63 L 0 62 L 0 61 L 0 60 L 0 59 L 0 58 L 0 57 L 0 56 L 0 55 L 0 54 L 0 53 L 0 52 L 0 51 L 0 50 L 0 49 L 0 48 L 0 47 L 0 46 L 0 45 L 0 44 L 0 43 L 0 42 L 0 41 L 0 40 L 0 39 L 0 38 L 0 37 L 0 36 L 0 35 L 0 34 L 1 33 L 1 32 L 1 31 L 1 30 L 1 29 L 1 28 L 1 27 L 1 25 L 1 24 L 1 23 L 1 22 L 1 21 L 1 20 L 1 19 L 2 18 L 2 17 L 2 16 L 2 15 L 2 14 L 2 13 L 2 12 L 2 11 L 2 10 L 2 9 L 3 8 L 3 7 L 3 6 L 3 5 L 3 4 L 3 3 L 3 2 L 4 1 L 4 0 L 5 1 L 7 1 L 8 1 Z" fill="none" stroke="blue" stroke-width="2" /></g></svg>