<?xml version="1.0" encoding="utf-8" ?>
<svg baseProfile="tiny" height="100%" shape-rendering="crispEdges" version="1.2" width="100%" xmlns="http://www.w3.org/2000/svg" xmlns:ev="http://www.w3.org/2001/xml-events" xmlns:xlink="http://www.w3.org/1999/xlink"><defs /><g><path d="M 81 164 L 75 166 L 69 167 L 63 168 L 56 169 L 50 170 L 44 171 L 39 171 L 33 171 L 28 171 L 24 170 L 19 170 L 15 169 L 12 168 L 9 166 L 7 165 L 5 163 L 3 161 L 3 159 L 2 157 L 3 155 L 3 152 L 5 150 L 7 147 L 9 145 L 12 142 L 15 139 L 19 137 L 23 134 L 28 131 L 33 129 L 39 126 L 44 124 L 50 122 L 56 120 L 62 118 L 69 116 L 75 114 L 81 113 L 87 112 L 94 111 L 100 110 L 106 109 L 111 109 L 117 109 L 122 109 L 126 110 L 131 110 L 135 111 L 138 112 L 141 114 L 143 115 L 145 117 L 147 119 L 147 121 L 148 123 L 147 125 L 147 128 L 145 130 L 143 133 L 141 135 L 138 138 L 135 141 L 131 143 L 127 146 L 122 149 L 117 151 L 111 154 L 106 156 L 100 158 L 94 160 L 88 162 L 81 164" fill="none" stroke="red" stroke-width="2" /><path d="M 98 64 L 98 70 L 97 76 L 97 82 L 95 88 L 94 94 L 92 99 L 90 104 L 88 109 L 85 113 L 83 118 L 80 121 L 76 125 L 73 127 L 70 130 L 66 132 L 62 133 L 59 134 L 55 134 L 51 134 L 48 133 L 44 132 L 40 130 L 37 127 L 34 125 L 30 121 L 27 118 L 25 113 L 22 109 L 20 104 L 18 99 L 16 94 L 15 88 L 13 82 L 13 76 L 12 70 L 12 64 L 12 58 L 13 52 L 13 46 L 15 40 L 16 34 L 18 29 L 20 24 L 22 19 L 25 15 L 27 10 L 30 7 L 34 3 L 37 1 L 40 -2 L 44 -4 L 48 -5 L 51 -6 L 55 -6 L 59 -6 L 62 -5 L 66 -4 L 70 -2 L 73 1 L 76 3 L 80 7 L 83 10 L 85 15 L 88 19 L 90 24 L 92 29 L 94 34 L 95 40 L 97 46 L 97 52 L 98 58 L 98 64 M 70 48 L 69 50 L 68 51 L 67 52 L 66 54 L 64 55 L 63 56 L 62 57 L 60 58 L 59 58 L 57 59 L 56 59 L 54 59 L 52 59 L 51 59 L 49 59 L 48 59 L 47 58 L 45 57 L 44 57 L 43 56 L 42 55 L 41 54 L 40 52 L 39 51 L 39 50 L 38 48 L 38 47 L 37 45 L 37 43 L 37 42 L 37 40 L 38 38 L 38 37 L 39 35 L 39 33 L 40 32 L 41 30 L 42 29 L 43 28 L 44 26 L 46 25 L 47 24 L 48 23 L 50 22 L 51 22 L 53 21 L 54 21 L 56 21 L 58 21 L 59 21 L 61 21 L 62 21 L 63 22 L 65 23 L 66 23 L 67 24 L 68 25 L 69 26 L 70 28 L 71 29 L 71 30 L 72 32 L 72 33 L 73 35 L 73 37 L 73 38 L 73 40 L 72 42 L 72 43 L 71 45 L 71 47 L 70 48" fill="none" stroke="green" stroke-width="2" /></g></svg>