<?xml version="1.0" encoding="utf-8" ?>
<svg baseProfile="tiny" height="100%" shape-rendering="crispEdges" version="1.2" width="100%" xmlns="http://www.w3.org/2000/svg" xmlns:ev="http://www.w3.org/2001/xml-events" xmlns:xlink="http://www.w3.org/1999/xlink"><defs /><g><path d="M 25 120 L 24 119 L 24 118 L 23 117 L 23 116 L 23 115 L 23 114 L 22 113 L 22 112 L 22 111 L 23 110 L 23 109 L 24 108 L 25 107 L 26 107 L 27 107 L 28 107 L 28 108 L 29 108 L 30 108 L 30 109 L 31 109 L 32 110 L 33 111 L 34 112 L 35 113 L 35 114 L 36 115 L 36 116 L 37 117 L 37 118 L 37 119 L 37 120 L 38 121 L 38 122 L 38 123 L 37 124 L 37 125 L 36 126 L 35 127 L 34 127 L 33 127 L 32 127 L 32 126 L 31 126 L 30 126 L 30 125 L 29 125 L 28 124 L 27 123 L 26 122 L 25 121 L 25 120" fill="none" stroke="red" stroke-width="2" /><path d="M 198 56 L 198 55 L 198 54 L 198 53 L 198 52 L 198 51 L 198 50 L 198 49 L 198 48 L 199 47 L 199 46 L 200 45 L 201 44 L 202 44 L 203 43 L 204 43 L 205 43 L 206 43 L 207 44 L 208 44 L 209 45 L 210 45 L 210 46 L 211 47 L 212 47 L 212 48 L 213 49 L 213 50 L 213 51 L 214 52 L 214 53 L 214 54 L 214 55 L 214 56 L 214 57 L 214 58 L 214 59 L 214 60 L 213 61 L 213 62 L 212 63 L 211 64 L 210 64 L 209 65 L 208 65 L 207 65 L 206 65 L 205 64 L 204 64 L 203 63 L 202 63 L 202 62 L 201 61 L 200 61 L 200 60 L 199 59 L 199 58 L 199 57 L 198 56" fill="none" stroke="green" stroke-width="2" /><path d="M 125 115 L 117 117 L 109 119 L 101 121 L 94 122 L 86 122 L 79 122 L 71 122 L 64 121 L 58 119 L 51 118 L 45 115 L 40 113 L 35 110 L 31 106 L 27 102 L 24 98 L 21 94 L 20 89 L 18 85 L 18 80 L 18 74 L 19 69 L 20 64 L 22 59 L 25 53 L 29 48 L 33 43 L 37 38 L 42 33 L 48 28 L 54 24 L 61 20 L 67 16 L 74 13 L 82 9 L 89 7 L 97 5 L 105 3 L 113 1 L 120 0 L 128 0 L 135 0 L 143 0 L 150 1 L 156 3 L 163 4 L 169 7 L 174 9 L 179 12 L 183 16 L 187 20 L 190 24 L 193 28 L 194 33 L 196 37 L 196 42 L 196 48 L 195 53 L 194 58 L 192 63 L 189 69 L 185 74 L 181 79 L 177 84 L 172 89 L 166 94 L 160 98 L 153 102 L 147 106 L 140 109 L 132 113 L 125 115" fill="none" stroke="blue" stroke-width="2" /><path d="M 205 85 L 205 86 L 205 87 L 205 88 L 205 89 L 205 90 L 205 91 L 205 92 L 205 93 L 205 93 L 205 94 L 204 95 L 204 96 L 204 97 L 204 98 L 204 99 L 204 100 L 203 101 L 203 101 L 203 102 L 203 103 L 202 104 L 202 105 L 202 106 L 202 107 L 201 107 L 201 108 L 201 109 L 200 110 L 200 111 L 200 112 L 199 112 L 199 113 L 199 114 L 198 115 L 198 116 L 198 116 L 197 117 L 197 118 L 196 119 L 196 119 L 196 120 L 195 121 L 195 122 L 194 123 L 194 123 L 193 124 L 193 125 L 192 126 L 192 126 L 191 127 L 191 128 L 190 128 L 190 129 L 189 130 L 189 131 L 188 131 L 188 132 L 187 133 L 186 133 L 186 134 L 185 135 L 185 135 L 184 136 L 183 137 L 183 137 L 182 138 L 182 139 L 181 139 L 180 140 L 180 140 L 179 141 L 178 142 L 178 142 L 177 143 L 176 143 L 176 144 L 175 145 L 174 145 L 173 146 L 173 146 L 172 147 L 171 147 L 171 148 L 170 148 L 169 149 L 168 149 L 168 150 L 167 150 L 166 151 L 165 151 L 164 152 L 164 152 L 163 153 L 162 153 L 161 154 L 160 154 L 160 154 L 159 155 L 158 155 L 157 156 L 156 156 L 155 156 L 155 157 L 154 157 L 153 158 L 152 158 L 151 158 L 150 159 L 149 159 L 149 159 L 148 160 L 147 160 L 146 160 L 145 160 L 144 161 L 143 161 L 142 161 L 141 162 L 140 162 L 140 162 L 139 162 L 138 162 L 137 163 L 136 163 L 135 163 L 134 163 L 133 163 L 132 164 L 131 164 L 130 164 L 129 164 L 128 164 L 127 164 L 126 164 L 125 164 L 124 165 L 123 165 L 122 165 L 121 165 L 120 165 L 119 165 L 118 165 L 117 165 L 116 165 L 115 165 L 114 165 L 113 165 L 112 165 L 111 165 L 110 165 L 109 165 L 108 164 L 107 164 L 106 164 L 105 164 L 104 164 L 103 164 L 102 164 L 101 164 L 100 163 L 99 163 L 98 163 L 97 163 L 96 163 L 95 162 L 94 162 L 93 162 L 92 162 L 91 161 L 90 161 L 89 161 L 88 161 L 87 160 L 86 160 L 85 160 L 84 159 L 83 159 L 82 159 L 81 158 L 81 158 L 80 158 L 79 157 L 78 157 L 77 156 L 76 156 L 75 156 L 74 155 L 73 155 L 73 154 L 72 154 L 71 153 L 70 153 L 69 152 L 68 152 L 67 151 L 67 151 L 66 150 L 65 150 L 64 149 L 63 149 L 63 148 L 62 148 L 61 147 L 60 147 L 60 146 L 59 145 L 58 145 L 57 144 L 57 144 L 56 143 L 55 142 L 54 142 L 54 141 L 53 141 L 52 140 L 52 139 L 53 139 L 53 139 L 54 139 L 55 139 L 56 139 L 57 139 L 58 138 L 58 138 L 59 138 L 60 138 L 61 138 L 62 138 L 63 138 L 64 137 L 65 137 L 66 137 L 67 137 L 67 137 L 68 137 L 69 136 L 70 136 L 71 136 L 72 136 L 73 136 L 74 135 L 75 135 L 76 135 L 77 135 L 78 135 L 79 134 L 80 134 L 81 134 L 82 134 L 83 134 L 84 133 L 85 133 L 86 133 L 87 133 L 88 132 L 88 132 L 89 132 L 90 132 L 92 131 L 93 131 L 94 131 L 95 131 L 96 130 L 97 130 L 98 130 L 99 129 L 100 129 L 101 129 L 102 129 L 103 128 L 104 128 L 105 128 L 106 127 L 107 127 L 108 127 L 109 127 L 110 126 L 111 126 L 112 126 L 113 125 L 114 125 L 115 125 L 116 124 L 117 124 L 119 124 L 120 123 L 121 123 L 122 122 L 123 122 L 124 122 L 125 121 L 126 121 L 127 121 L 128 120 L 129 120 L 130 120 L 132 119 L 133 119 L 134 118 L 135 118 L 136 118 L 137 117 L 138 117 L 139 116 L 140 116 L 141 116 L 142 115 L 143 115 L 144 114 L 145 114 L 146 114 L 147 113 L 149 113 L 150 112 L 151 112 L 152 112 L 153 111 L 154 111 L 155 110 L 156 110 L 157 110 L 158 109 L 159 109 L 160 108 L 161 108 L 162 107 L 163 107 L 164 107 L 165 106 L 165 106 L 166 105 L 167 105 L 168 104 L 169 104 L 170 104 L 171 103 L 172 103 L 173 102 L 174 102 L 175 101 L 176 101 L 177 101 L 178 100 L 179 100 L 179 99 L 180 99 L 181 98 L 182 98 L 183 98 L 184 97 L 185 97 L 186 96 L 186 96 L 187 95 L 188 95 L 189 94 L 190 94 L 191 94 L 191 93 L 192 93 L 193 92 L 194 92 L 195 91 L 196 91 L 196 91 L 197 90 L 198 90 L 199 89 L 199 89 L 200 88 L 201 88 L 202 87 L 202 87 L 203 87 L 204 86 L 205 86 L 205 85" fill="none" stroke="yellow" stroke-width="2" /><path d="M 130 117 L 120 120 L 111 124 L 101 126 L 91 129 L 82 131 L 73 133 L 64 135 L 56 136 L 48 137 L 41 137 L 34 137 L 28 137 L 23 136 L 19 135 L 15 134 L 12 132 L 9 130 L 8 127 L 8 125 L 8 122 L 9 118 L 11 115 L 14 111 L 17 107 L 22 103 L 27 99 L 33 94 L 39 90 L 46 86 L 54 81 L 62 77 L 71 73 L 80 68 L 89 64 L 98 61 L 108 57 L 118 54 L 127 50 L 137 48 L 147 45 L 156 43 L 165 41 L 174 39 L 182 38 L 190 37 L 197 37 L 204 37 L 210 37 L 215 38 L 219 39 L 223 40 L 226 42 L 229 44 L 230 47 L 230 49 L 230 52 L 229 56 L 227 59 L 224 63 L 221 67 L 216 71 L 211 75 L 205 80 L 199 84 L 192 88 L 184 93 L 176 97 L 167 101 L 158 106 L 149 110 L 140 113 L 130 117" fill="none" stroke="purple" stroke-width="2" /></g></svg>